<svg width="137" height="137" viewBox="0 0 137 137" fill="none" xmlns="http://www.w3.org/2000/svg">
<path d="M68.5 0C30.6195 0 0 30.6195 0 68.5C0 106.38 30.6195 137 68.5 137C106.38 137 137 106.38 137 68.5C137 30.6195 106.38 0 68.5 0ZM97.955 97.955C97.3213 98.59 96.5685 99.0938 95.7399 99.4376C94.9112 99.7813 94.0229 99.9582 93.1258 99.9582C92.2286 99.9582 91.3403 99.7813 90.5116 99.4376C89.683 99.0938 88.9302 98.59 88.2965 97.955L68.5 78.1585L48.7035 97.955C47.4227 99.2358 45.6856 99.9553 43.8742 99.9553C42.0629 99.9553 40.3258 99.2358 39.045 97.955C37.7642 96.6742 37.0447 94.9371 37.0447 93.1258C37.0447 92.2289 37.2213 91.3408 37.5645 90.5122C37.9077 89.6836 38.4108 88.9307 39.045 88.2965L58.8415 68.5L39.045 48.7035C37.7642 47.4227 37.0447 45.6856 37.0447 43.8742C37.0447 42.0629 37.7642 40.3258 39.045 39.045C40.3258 37.7642 42.0629 37.0447 43.8742 37.0447C45.6856 37.0447 47.4227 37.7642 48.7035 39.045L68.5 58.8415L88.2965 39.045C88.9307 38.4108 89.6836 37.9077 90.5122 37.5645C91.3408 37.2213 92.2289 37.0447 93.1258 37.0447C94.0226 37.0447 94.9107 37.2213 95.7393 37.5645C96.5679 37.9077 97.3208 38.4108 97.955 39.045C98.5892 39.6792 99.0922 40.4321 99.4355 41.2607C99.7787 42.0893 99.9553 42.9774 99.9553 43.8742C99.9553 44.7711 99.7787 45.6592 99.4355 46.4878C99.0922 47.3164 98.5892 48.0693 97.955 48.7035L78.1585 68.5L97.955 88.2965C100.558 90.8995 100.558 95.2835 97.955 97.955Z" fill="#F11F10"/>
</svg>
